<?xml version="1.0" encoding="UTF-8" standalone="no"?>
<!-- Created with Inkscape (http://www.inkscape.org/) -->

<svg
   width="146.69458mm"
   height="127.04019mm"
   viewBox="0 0 146.69458 127.0402"
   version="1.1"
   id="svg1"
   xmlns="http://www.w3.org/2000/svg"
   xmlns:svg="http://www.w3.org/2000/svg">
  <defs
     id="defs1" />
  <path
     style="baseline-shift:baseline;display:inline;overflow:visible;opacity:1;vector-effect:none;fill:#ffffff;enable-background:accumulate;stop-color:#000000;stop-opacity:1"
     d="M 146.69458,49.221035 118.27719,6.0442865e-7 28.41797,9.7604429e-5 0,49.221465 l 44.930503,77.818715 56.835357,-3.3e-4 z m -13.4515,11.509609 -28.23535,48.905066 4.119,-30.224147 z m 1.43015,-8.563016 -24.41002,18.908305 2.57702,-18.908855 z M 98.307008,115.15576 87.390036,96.248109 102.47708,84.561914 Z M 136.4311,43.232276 115.23894,34.56707 118.33135,11.882749 Z m -44.983396,77.913524 -36.202032,6.4e-4 18.101665,-14.02098 z m 36.852756,-74.869906 -14.65683,-3.42e-4 0.77385,-5.676284 z M 90.014772,112.58065 78.160564,103.3979 82.688471,99.891279 Z M 103.6125,76.227923 84.416894,91.096779 76.749693,77.818163 l 14.80957,-25.650928 15.333217,6.91e-4 z m 4.08169,-29.952498 -12.733562,4.73e-4 6.368172,-11.029985 7.45426,3.049784 z m -27.980471,48.463594 -6.365236,4.93115 -6.368325,-4.93067 6.36719,-11.028301 z m 29.890801,-62.475513 -5.30209,-2.168071 7.32715,-12.690996 z M 68.535178,103.39768 56.678403,112.58266 64.006528,99.889969 Z M 109.71591,8.9338506 98.797934,27.844329 81.132199,20.621981 Z m -13.892586,24.0626544 -7.666015,13.277928 -29.618184,-5.8e-4 -7.6672,-13.278606 22.47471,-9.189055 z M 84.754964,52.167467 73.347739,71.92536 61.940099,52.168353 Z M 69.945394,77.818395 62.279379,91.096319 43.08199,76.226095 39.80259,52.167897 55.135805,52.168576 Z M 59.304769,96.248499 48.386799,115.15898 44.217164,84.560697 Z M 101.58376,5.8941346 73.349069,17.438697 45.114217,5.8936696 Z M 41.686525,109.63519 13.453038,60.732339 37.567054,79.410946 Z M 51.733816,46.275753 38.998565,46.27525 37.911234,38.295282 45.36673,35.245264 Z M 65.561769,20.621905 47.898818,27.843939 36.981838,8.9362826 Z M 36.430152,71.075346 12.02183,52.168186 33.853132,52.16776 Z m 5.962496,-40.979701 -5.302503,2.168584 -2.026209,-14.861602 z m -9.34082,16.178775 -14.657812,0.0014 13.882907,-5.678721 z M 31.454902,34.567717 10.263828,43.232674 28.363438,11.883229 Z"
     id="path14-3" />
</svg>
