<?xml version="1.0" encoding="UTF-8" standalone="no"?>
<!-- Created with Inkscape (http://www.inkscape.org/) -->

<svg
   width="146.69336mm"
   height="146.69336mm"
   viewBox="0 0 146.69336 146.69336"
   version="1.1"
   id="svg1"
   sodipodi:docname="grayaiwhite.svg"
   inkscape:export-filename="grayaiwhite.svg"
   inkscape:export-xdpi="96"
   inkscape:export-ydpi="96"
   inkscape:version="1.4.2 (1:1.4.2+202505120738+ebf0e940d0)"
   xmlns:inkscape="http://www.inkscape.org/namespaces/inkscape"
   xmlns:sodipodi="http://sodipodi.sourceforge.net/DTD/sodipodi-0.dtd"
   xmlns="http://www.w3.org/2000/svg"
   xmlns:svg="http://www.w3.org/2000/svg">
  <sodipodi:namedview
     id="namedview1"
     pagecolor="#505050"
     bordercolor="#eeeeee"
     borderopacity="1"
     inkscape:showpageshadow="0"
     inkscape:pageopacity="0"
     inkscape:pagecheckerboard="0"
     inkscape:deskcolor="#d1d1d1"
     inkscape:document-units="mm"
     inkscape:zoom="0.76926047"
     inkscape:cx="297.03853"
     inkscape:cy="350.33647"
     inkscape:window-width="1920"
     inkscape:window-height="1056"
     inkscape:window-x="0"
     inkscape:window-y="0"
     inkscape:window-maximized="1"
     inkscape:current-layer="svg1" />
  <defs
     id="defs1" />
  <path
     style="baseline-shift:baseline;display:inline;overflow:visible;opacity:1;vector-effect:none;fill:#ffffff;enable-background:accumulate;stop-color:#000000;stop-opacity:1"
     d="M 146.69696,64.345446 118.27957,15.124412 28.420353,15.124509 0.00238301,64.345876 44.932886,142.16459 l 56.835354,-3.3e-4 z m -13.4515,11.509609 -28.23535,48.905065 4.119,-30.224146 z m 1.43015,-8.563016 -24.41002,18.908305 2.57702,-18.908855 z M 98.309391,130.28017 87.392419,111.37252 102.47946,99.686325 Z M 136.43348,58.356687 115.24132,49.691481 118.33373,27.00716 Z m -44.983393,77.913523 -36.202032,6.4e-4 18.101665,-14.02098 z m 36.852753,-74.869905 -14.65683,-3.42e-4 0.77385,-5.676284 z m -38.285685,66.304755 -11.854208,-9.18275 4.527907,-3.50662 z M 103.61488,91.352334 84.419277,106.22119 76.752076,92.942574 l 14.80957,-25.650928 15.333214,6.91e-4 z m 4.08169,-29.952498 -12.733559,4.73e-4 6.368169,-11.029985 7.45426,3.049784 z m -27.980468,48.463594 -6.365236,4.93115 -6.368325,-4.93067 6.36719,-11.028301 z M 109.6069,47.387917 104.30481,45.219846 111.63196,32.52885 Z m -41.069339,71.134173 -11.856775,9.18498 7.328125,-12.69269 z M 109.71829,24.058262 98.800317,42.96874 81.134582,35.746392 Z m -13.892583,24.062654 -7.666015,13.277928 -29.618184,-5.8e-4 -7.6672,-13.278606 22.47471,-9.189055 z M 84.757347,67.291878 73.350122,87.049771 61.942482,67.292764 Z m -14.80957,25.650928 -7.666015,13.277924 -19.197389,-14.870224 -3.2794,-24.058198 15.333215,6.79e-4 z M 59.307152,111.37291 48.389182,130.28339 44.219547,99.685108 Z M 101.58614,21.018546 73.351452,32.563108 45.1166,21.018081 Z M 41.688908,124.7596 13.455421,75.85675 37.569437,94.535357 Z M 51.736199,61.400164 39.000948,61.399661 37.913617,53.419693 45.369113,50.369675 Z M 65.564152,35.746316 47.901201,42.96835 36.984221,24.060694 Z M 36.432535,86.199757 12.024213,67.292597 33.855515,67.292171 Z M 42.395031,45.220056 37.092528,47.38864 35.066319,32.527038 Z m -9.34082,16.178775 -14.657812,0.0014 13.882907,-5.678721 z M 31.457285,49.692128 10.266211,58.357085 28.365821,27.00764 Z"
     id="path14-3" />
</svg>
