<?xml version="1.0" encoding="UTF-8" standalone="no"?>
<svg
   viewBox="0 0 24 24"
   width="24"
   height="24"
   version="1.1"
   id="svg1"
   xmlns="http://www.w3.org/2000/svg"
   xmlns:svg="http://www.w3.org/2000/svg">
  <defs
     id="defs1" />
  <path
     d="M 6.9980469,0 C 3.1390469,0 0,3.1419531 0,7.001953 v 10 C 0,20.860953 3.1419531,24 7.001953,24 h 10 C 20.860953,24 24,20.858047 24,16.998047 V 6.9980469 C 24,3.1390469 20.858047,0 16.998047,0 Z M 19,4 c 0.552,0 1,0.448 1,1 0,0.552 -0.448,1 -1,1 -0.552,0 -1,-0.448 -1,-1 0,-0.552 0.448,-1 1,-1 z m -7,2 c 3.309,0 6,2.691 6,6 0,3.309 -2.691,6 -6,6 C 8.691,18 6,15.309 6,12 6,8.691 8.691,6 12,6 Z m 0,2 a 4,4 0 0 0 -4,4 4,4 0 0 0 4,4 4,4 0 0 0 4,-4 4,4 0 0 0 -4,-4 z"
     id="path1"
     style="fill:#ffffff" />
</svg>
