<?xml version="1.0" encoding="UTF-8" standalone="no"?>
<svg
   fill="currentColor"
   fill-rule="evenodd"
   height="21.000107"
   style="line-height:1"
   viewBox="0 0 22.466513 21.000107"
   width="22.466513"
   version="1.1"
   id="svg2"
   xmlns="http://www.w3.org/2000/svg"
   xmlns:svg="http://www.w3.org/2000/svg">
  <defs
     id="defs2" />
  <title
     id="title1">Kimi</title>
  <path
     d="m 18.238,4.7761067 c 0.163,-0.209 0.306,-0.4 0.457,-0.585 0.07,-0.087 0.064,-0.153 -0.004,-0.244 -0.655,-0.861 -0.717,-1.817 -0.34,-2.787 0.283,-0.72999995 0.909,-1.07199995 1.674,-1.14499995 0.477,-0.045 0.945,0.004 1.379,0.236 0.57,0.305 0.902,0.76999995 1.01,1.41199995 0.086,0.512 0.07,1.012 -0.075,1.508 -0.257,0.878 -0.888,1.333 -1.753,1.448 -0.718,0.096 -1.446,0.108 -2.17,0.157 -0.056,0.004 -0.113,0 -0.178,0 z"
     fill="#027aff"
     id="path1" />
  <path
     d="M 16.462,0.84410675 H 12.136 L 8.7109995,8.6541067 h -4.842 V 0.87810675 H -4.9131553e-7 V 21.000107 H 3.8699995 v -8.477 H 10.694 a 3.025,3.025 0 0 0 2.743,-1.75 v 10.227 h 3.87 v -8.477 A 3.87,3.87 0 0 0 13.719,8.6631067 v -0.01 h -2.125 a 3.94,3.94 0 0 0 2.323,-2.12 z"
     id="path2"
     style="fill:#ffffff" />
</svg>
