<?xml version="1.0" encoding="UTF-8" standalone="no"?>
<svg
   fill="currentColor"
   fill-rule="evenodd"
   height="23.041008"
   style="line-height:1"
   viewBox="0 0 24 23.041008"
   width="24"
   version="1.1"
   id="svg1"
   xmlns="http://www.w3.org/2000/svg"
   xmlns:svg="http://www.w3.org/2000/svg">
  <defs
     id="defs1" />
  <title
     id="title1">Grok</title>
  <path
     d="M 9.2700034,14.790003 17.248003,8.8930027 c 0.391,-0.29 0.95,-0.177 1.137,0.272 0.98,2.3690003 0.542,5.2150003 -1.41,7.1690003 -1.951,1.954 -4.667,2.382 -7.1489996,1.406 l -2.711,1.257 c 3.8889996,2.661 8.6109996,2.003 11.5619996,-0.953 2.341,-2.344 3.066,-5.539 2.388,-8.4200003 l 0.006,0.007 c -0.983,-4.232 0.242,-5.924 2.75,-9.38300001 0.06,-0.082 0.12,-0.164 0.179,-0.2480000032754 L 20.699003,3.3050027 v -0.01 L 9.2670034,14.792003 m -1.644,1.431 c -2.792,-2.67 -2.31,-6.8010003 0.071,-9.1840003 1.761,-1.763 4.6469996,-2.483 7.1659996,-1.425 l 2.705,-1.25 a 7.808,7.808 0 0 0 -1.829,-1 8.975,8.975 0 0 0 -9.7519996,1.966 c -2.533,2.536 -3.33,6.4360003 -1.962,9.7640003 1.022,2.487 -0.653,4.246 -2.34,6.022 -0.599,0.63 -1.19899996,1.259 -1.6819999620117,1.925 L 7.6200034,16.226003"
     id="path1"
     style="fill:#ffffff" />
</svg>
