<?xml version="1.0" encoding="utf-8"?>
<!-- Generator: Adobe Illustrator 28.0.0, SVG Export Plug-In . SVG Version: 6.00 Build 0)  -->
<svg version="1.1" id="Слой_1" xmlns="http://www.w3.org/2000/svg" xmlns:xlink="http://www.w3.org/1999/xlink" x="0px" y="0px"
	 viewBox="0 0 1000 1000" style="enable-background:new 0 0 1000 1000;" xml:space="preserve">
<style type="text/css">
	.st0{fill:#FF6900;}
	.st1{fill:#FFFFFF;}
</style>
<g>
	<g>
		<path class="st0" d="M896.2,104.9c-94.3-94-230-104.5-395.8-104.5c-166,0-301.8,10.6-396.1,104.9C10,199.5,0.5,335.1,0.5,500.9
			c0,165.8,9.6,301.5,103.9,395.7c94.3,94.2,230.1,103.8,396.1,103.8s301.8-9.5,396.1-103.8c94.3-94.2,103.9-229.9,103.9-395.7
			C1000.5,334.9,990.8,199.1,896.2,104.9L896.2,104.9z"/>
	</g>
	<g>
		<path class="st1" d="M793.8,309c3.4,0,6.3,2.8,6.3,6.2v370.6c0,3.4-2.9,6.1-6.3,6.1h-81.2c-3.5,0-6.3-2.8-6.3-6.1V315.2
			c0-3.4,2.8-6.2,6.3-6.2H793.8z M441.5,309c61.2,0,125.3,2.8,156.9,34.4c31.1,31.1,34.4,93,34.5,153.2l0,189.2
			c0,3.4-2.8,6.1-6.3,6.1h-81.2c-3.5,0-6.3-2.8-6.3-6.1V493.3c-0.1-33.6-2-68.1-19.3-85.5c-14.9-14.9-42.7-18.4-71.7-19.1H301
			c-3.5,0-6.3,2.8-6.3,6.1v290.8c0,3.4-2.9,6.1-6.3,6.1h-81.2c-3.5,0-6.3-2.8-6.3-6.1V315.2c0-3.4,2.8-6.2,6.3-6.2H441.5z
			 M459.7,456.6c3.4,0,6.2,2.8,6.2,6.1v223c0,3.4-2.8,6.1-6.2,6.1h-85.3c-3.5,0-6.3-2.8-6.3-6.1v-223c0-3.4,2.8-6.1,6.3-6.1H459.7z"
			/>
	</g>
</g>
</svg>
