<?xml version="1.0" encoding="UTF-8"?>
<svg id="margin" xmlns="http://www.w3.org/2000/svg" version="1.1" viewBox="0 0 636.61 601.7">
  <!-- Generator: Adobe Illustrator 29.5.0, SVG Export Plug-In . SVG Version: 2.1.0 Build 137)  -->
  <defs>
    <style>
      .st0 {
        fill: #00aed6;
        fill-rule: evenodd;
      }
    </style>
  </defs>
  <path class="st0" d="M597.71,287.95c-2.79-61.35-55.77-108.75-117.12-105.97H176.63c-11.15,0-22.31-8.37-22.31-22.31s8.37-19.52,22.31-19.52h309.53c-2.79-39.04-30.67-80.87-72.5-86.45-89.23-16.73-181.26-16.73-270.49,0-50.19,8.37-86.45,58.56-94.81,105.97-13.94,94.81-13.94,189.62,0,284.44,11.15,55.77,55.77,97.6,111.54,105.97,114.33,13.94,223.09,13.94,334.63,0,50.19-5.58,80.87-52.98,92.02-100.39,11.15-55.77,13.94-108.75,11.15-161.74h0ZM500.11,352.09v19.52c0,11.15-8.37,22.31-22.31,22.31s-22.31-8.37-22.31-22.31v-19.52c-8.24-5.03-11.15-13.94-11.15-22.31,0-16.73,16.32-30.67,33.05-30.67,13.94,0,32.49,11.22,32.49,30.53.47,9.89-4.71,19.78-9.77,22.46h0Z"/>
</svg>