<svg version="1.2" xmlns="http://www.w3.org/2000/svg" viewBox="0 0 1165 1520" width="1165" height="1520">
	<title>Permata_Bank_(2024)-svg</title>
	<style>
		.s0 { fill: #0064ff } 
	</style>
	<path id="path24" fill-rule="evenodd" class="s0" d="m1164.2 894.8c0 148-75.6 281.2-211.5 374.2l-370.7 250.8-370.6-250.8c-135.6-93-211.4-226-211.4-374.2 0-97 31-186.2 110.7-288.8l471.5-606 471.6 606c79.5 102.6 110.5 192 110.4 288.8zm-694.4 222.4l-240.7-262.2c-42.7-47.6-62.1-80-73.7-112.2-27.2 49.6-42.7 102.8-42.7 157.8 0 106.4 60.2 210.9 166.9 281.2l227 152v-89.4c0-57 1.8-83.6-36.8-127.2zm112.4-41.8l254.4-277.4c60.1-64.5 71.7-100.6 71.7-138.6 0-36.2-9.6-68.4-54.3-127.4l-271.7-345.8-271.7 345.8c-46.5 59-54.3 91.2-54.3 127.4 0 38 11.5 74 71.7 138.6zm469.8-175c0-55.1-15.5-108.3-42.7-157.7-11.6 32.3-31 64.7-73.7 112.1l-240.7 262.2c-38.8 43.8-36.9 70.4-36.9 127.4v89.4l227-152c106.8-70.4 166.8-174.8 167-281.4z"/>
</svg>